<svg id="svg" version="1.1" xmlns="http://www.w3.org/2000/svg" xmlns:xlink="http://www.w3.org/1999/xlink" viewBox="0, 0, 400,80.60836501901142"><g id="svgg"><path id="path0" d="M0.000 40.250 L 0.000 80.500 187.684 80.500 C 357.931 80.500,375.360 80.476,375.269 80.239 C 375.190 80.035,375.250 80.000,375.543 80.081 C 375.906 80.181,375.908 80.177,375.593 79.925 C 375.313 79.701,375.307 79.667,375.548 79.667 C 375.833 79.667,376.053 79.119,375.994 78.560 C 375.923 77.887,376.007 77.667,376.333 77.667 C 376.517 77.667,376.667 77.599,376.667 77.516 C 376.667 77.433,376.517 77.404,376.333 77.452 C 376.061 77.523,376.000 77.457,376.000 77.093 C 376.000 76.833,376.071 76.691,376.169 76.752 C 376.263 76.809,376.286 76.945,376.221 77.053 C 376.138 77.191,376.179 77.188,376.358 77.043 C 376.499 76.929,376.663 76.886,376.724 76.946 C 376.784 77.006,376.833 76.926,376.833 76.768 C 376.833 76.610,376.758 76.527,376.667 76.583 C 376.575 76.640,376.500 76.607,376.500 76.510 C 376.500 76.413,376.560 76.333,376.633 76.333 C 376.706 76.333,376.772 76.127,376.779 75.875 C 376.810 74.815,376.845 74.703,377.167 74.618 C 377.464 74.541,377.500 74.390,377.503 73.224 C 377.504 72.318,377.555 71.993,377.667 72.167 C 377.803 72.378,377.829 72.379,377.831 72.176 C 377.833 71.990,377.880 72.000,378.042 72.221 C 378.228 72.475,378.253 72.456,378.277 72.044 C 378.292 71.791,378.217 71.475,378.110 71.343 C 377.958 71.154,377.964 71.131,378.138 71.236 C 378.309 71.339,378.340 71.249,378.276 70.841 C 378.219 70.479,378.267 70.284,378.429 70.222 C 378.559 70.173,378.620 70.060,378.566 69.971 C 378.511 69.883,378.617 69.771,378.802 69.723 C 379.150 69.632,379.439 67.833,379.105 67.833 C 378.841 67.834,379.368 67.334,379.645 67.320 C 379.829 67.311,379.847 67.279,379.701 67.221 C 379.545 67.158,379.535 67.075,379.666 66.918 C 379.764 66.799,379.834 66.638,379.819 66.559 C 379.715 65.979,379.851 65.285,380.033 65.467 C 380.343 65.776,380.456 65.709,380.536 65.167 C 380.576 64.892,380.547 64.667,380.471 64.667 C 380.395 64.667,380.333 64.554,380.333 64.417 C 380.333 64.279,380.419 64.167,380.523 64.167 C 380.654 64.167,380.681 63.895,380.611 63.292 C 380.542 62.706,380.561 62.499,380.668 62.667 C 380.775 62.833,380.829 62.847,380.831 62.708 C 380.832 62.594,380.916 62.500,381.018 62.500 C 381.119 62.500,381.160 62.610,381.108 62.745 C 381.057 62.879,381.080 63.030,381.160 63.079 C 381.241 63.129,381.294 62.575,381.278 61.849 C 381.257 60.863,381.299 60.569,381.443 60.689 C 381.569 60.793,381.675 60.788,381.745 60.675 C 381.804 60.579,381.774 60.500,381.677 60.500 C 381.579 60.500,381.500 60.425,381.500 60.333 C 381.500 60.131,381.866 60.186,382.048 60.417 C 382.121 60.508,382.170 60.283,382.157 59.917 C 382.118 58.770,382.144 58.668,382.444 58.784 C 382.630 58.855,382.682 58.826,382.601 58.695 C 382.535 58.588,382.372 58.500,382.240 58.500 C 381.865 58.500,381.958 58.050,382.355 57.946 C 382.592 57.884,382.677 57.767,382.610 57.593 C 382.555 57.450,382.583 57.333,382.672 57.333 C 382.761 57.333,382.833 56.918,382.833 56.410 C 382.833 55.697,382.914 55.402,383.186 55.118 L 383.538 54.750 383.429 55.111 C 383.369 55.310,383.379 55.509,383.452 55.553 C 383.524 55.598,383.603 55.139,383.628 54.534 C 383.652 53.928,383.755 53.381,383.857 53.318 C 383.959 53.255,383.991 53.120,383.927 53.017 C 383.864 52.915,383.931 52.785,384.076 52.730 C 384.221 52.674,384.329 52.544,384.317 52.439 C 384.224 51.664,384.358 51.129,384.667 51.048 C 384.850 51.000,385.000 50.901,385.000 50.828 C 385.000 50.754,385.051 50.562,385.112 50.401 C 385.201 50.169,385.162 50.133,384.922 50.225 C 384.660 50.325,384.649 50.305,384.842 50.073 C 384.964 49.926,385.081 49.681,385.101 49.528 C 385.230 48.561,385.328 48.118,385.433 48.024 C 385.499 47.965,385.508 48.042,385.454 48.195 C 385.358 48.462,385.775 48.780,385.968 48.587 C 386.016 48.539,385.965 48.500,385.855 48.500 C 385.716 48.500,385.703 48.411,385.811 48.208 C 385.896 48.048,385.938 47.676,385.904 47.382 C 385.858 46.991,385.930 46.785,386.170 46.617 C 386.350 46.490,386.448 46.337,386.388 46.277 C 386.327 46.216,386.355 46.167,386.449 46.167 C 386.544 46.167,386.610 45.998,386.597 45.792 C 386.584 45.585,386.621 45.137,386.680 44.796 C 386.739 44.455,386.722 44.216,386.643 44.264 C 386.565 44.313,386.500 44.161,386.500 43.927 C 386.500 43.462,386.654 43.388,386.967 43.700 C 387.122 43.856,387.167 43.840,387.167 43.631 C 387.167 43.482,387.073 43.318,386.958 43.265 C 386.844 43.213,386.922 43.213,387.133 43.265 C 387.486 43.353,387.512 43.312,387.477 42.714 C 387.456 42.358,387.494 41.977,387.563 41.867 C 387.635 41.750,387.595 41.665,387.468 41.662 C 387.348 41.660,387.456 41.530,387.708 41.374 C 388.152 41.099,388.330 40.075,388.179 38.667 C 388.163 38.517,388.206 38.483,388.285 38.583 C 388.604 38.986,388.917 38.826,388.938 38.248 C 388.995 36.635,388.996 36.630,389.241 36.724 C 389.531 36.835,389.704 36.382,389.662 35.621 C 389.611 34.677,389.662 34.311,389.832 34.416 C 390.019 34.531,390.530 34.290,390.529 34.087 C 390.529 34.014,390.437 33.898,390.326 33.829 C 390.199 33.751,390.178 33.619,390.270 33.477 C 390.351 33.352,390.421 33.025,390.427 32.750 C 390.433 32.475,390.526 32.241,390.635 32.229 C 390.744 32.218,390.908 32.199,391.000 32.188 C 391.092 32.176,391.167 32.082,391.167 31.980 C 391.167 31.842,391.108 31.842,390.943 31.978 C 390.678 32.198,390.500 32.062,390.500 31.642 C 390.500 31.459,390.664 31.299,390.917 31.235 C 391.151 31.176,391.332 31.011,391.331 30.857 C 391.329 30.619,391.307 30.616,391.167 30.833 C 391.070 30.984,391.004 31.004,391.003 30.885 C 391.001 30.776,391.072 30.642,391.160 30.587 C 391.249 30.533,391.291 30.191,391.255 29.827 C 391.218 29.458,391.262 29.167,391.354 29.167 C 391.445 29.167,391.470 29.087,391.410 28.989 C 391.344 28.882,391.423 28.832,391.608 28.864 C 391.873 28.909,391.921 28.793,391.945 28.050 C 391.981 26.973,392.230 26.412,392.415 26.995 C 392.509 27.292,392.569 27.326,392.682 27.147 C 392.900 26.803,392.863 26.167,392.625 26.164 C 392.468 26.162,392.465 26.131,392.614 26.036 C 392.733 25.961,392.789 25.623,392.754 25.191 C 392.697 24.486,392.705 24.473,393.140 24.580 C 393.569 24.685,393.573 24.680,393.250 24.425 C 393.025 24.247,392.998 24.176,393.167 24.206 C 393.420 24.251,393.449 24.121,393.484 22.784 C 393.494 22.382,393.576 22.162,393.708 22.179 C 394.242 22.248,394.301 22.147,394.272 21.208 C 394.247 20.411,394.306 20.186,394.621 19.867 C 395.025 19.460,395.150 18.896,394.792 19.098 C 394.625 19.192,394.625 19.171,394.792 18.991 C 394.906 18.868,395.000 18.369,395.000 17.883 C 395.000 17.015,395.071 16.914,395.632 16.989 C 395.781 17.009,395.845 16.795,395.839 16.301 C 395.834 15.906,395.830 15.382,395.830 15.136 C 395.830 14.890,395.917 14.635,396.024 14.569 C 396.133 14.501,396.174 14.520,396.116 14.613 C 396.060 14.704,396.124 14.778,396.257 14.778 C 396.555 14.778,396.566 14.638,396.292 14.342 C 396.175 14.217,396.166 14.164,396.271 14.222 C 396.395 14.292,396.499 13.980,396.582 13.288 C 396.651 12.717,396.741 12.343,396.783 12.457 C 396.842 12.615,396.916 12.608,397.097 12.427 C 397.368 12.155,397.414 11.930,397.167 12.083 C 397.075 12.140,397.000 12.107,397.000 12.010 C 397.000 11.913,397.081 11.833,397.179 11.833 C 397.278 11.833,397.346 11.590,397.329 11.292 C 397.313 10.994,397.316 10.675,397.336 10.583 C 397.356 10.492,397.360 10.348,397.344 10.263 C 397.328 10.179,397.425 10.202,397.559 10.313 C 397.885 10.584,398.106 10.245,397.824 9.906 C 397.656 9.704,397.667 9.677,397.880 9.759 C 398.104 9.845,398.131 9.706,398.072 8.780 C 398.006 7.723,398.277 7.171,398.604 7.700 C 398.678 7.820,398.641 7.837,398.500 7.750 C 398.356 7.661,398.322 7.680,398.401 7.808 C 398.617 8.158,398.859 8.007,398.828 7.542 C 398.763 6.559,398.845 5.258,398.961 5.417 C 399.125 5.640,399.554 5.722,399.419 5.504 C 399.361 5.410,399.384 5.333,399.470 5.333 C 399.555 5.333,399.616 4.855,399.604 4.271 C 399.588 3.482,399.636 3.229,399.791 3.289 C 399.906 3.333,400.000 3.286,400.000 3.184 C 400.000 3.083,399.869 2.998,399.708 2.995 C 399.431 2.990,399.431 2.979,399.708 2.768 C 399.941 2.591,400.000 2.290,400.000 1.273 L 400.000 0.000 200.000 0.000 L 0.000 0.000 0.000 40.250 M395.288 17.101 C 395.106 17.283,395.142 17.535,395.333 17.417 C 395.425 17.360,395.500 17.398,395.500 17.500 C 395.500 17.602,395.575 17.640,395.667 17.583 C 395.758 17.527,395.833 17.405,395.833 17.314 C 395.833 17.222,395.765 17.189,395.681 17.241 C 395.597 17.293,395.502 17.255,395.469 17.157 C 395.436 17.059,395.355 17.034,395.288 17.101 " stroke="none" fill="#dc8c8c" fill-rule="evenodd"></path><path id="path1" d="M398.836 5.625 C 398.833 6.086,398.908 6.092,399.333 5.667 C 399.517 5.483,399.596 5.333,399.510 5.333 C 399.424 5.333,399.302 5.416,399.239 5.518 C 399.160 5.646,399.082 5.634,398.982 5.476 C 398.877 5.311,398.838 5.351,398.836 5.625 M398.228 7.634 C 398.129 7.698,398.043 7.991,398.036 8.286 C 398.024 8.775,398.051 8.804,398.345 8.621 C 398.541 8.498,398.648 8.274,398.618 8.049 C 398.556 7.590,398.458 7.485,398.228 7.634 M397.374 10.240 C 397.442 10.320,397.419 10.480,397.324 10.595 C 397.204 10.740,397.204 10.837,397.325 10.912 C 397.421 10.971,397.500 10.943,397.500 10.848 C 397.500 10.754,397.613 10.720,397.750 10.773 C 397.914 10.836,398.000 10.768,398.000 10.573 C 398.000 10.411,397.951 10.327,397.890 10.387 C 397.830 10.448,397.661 10.406,397.515 10.296 C 397.369 10.185,397.306 10.160,397.374 10.240 M396.634 12.816 C 396.553 13.368,396.606 13.419,397.000 13.170 C 397.268 13.001,397.383 12.333,397.144 12.333 C 397.065 12.333,396.999 12.427,396.997 12.542 C 396.996 12.696,396.958 12.691,396.852 12.525 C 396.751 12.365,396.687 12.450,396.634 12.816 M395.901 14.731 C 395.759 15.101,395.937 15.500,396.245 15.500 C 396.571 15.500,396.576 14.937,396.252 14.668 C 396.051 14.502,395.984 14.514,395.901 14.731 M395.208 16.955 C 394.854 17.079,394.953 17.833,395.323 17.833 C 395.501 17.833,395.701 17.747,395.766 17.641 C 395.840 17.522,395.812 17.494,395.692 17.567 C 395.450 17.717,395.440 17.460,395.678 17.222 C 395.882 17.018,395.557 16.833,395.208 16.955 M394.511 19.903 C 394.353 20.093,394.372 20.131,394.607 20.097 C 394.767 20.073,394.928 19.967,394.963 19.860 C 395.054 19.589,394.748 19.618,394.511 19.903 M393.500 22.599 C 393.500 23.045,393.814 23.003,394.117 22.518 C 394.285 22.248,394.258 22.208,393.905 22.208 C 393.591 22.208,393.500 22.296,393.500 22.599 M392.727 24.990 C 392.727 25.406,392.771 25.456,393.021 25.322 C 393.454 25.090,393.574 24.816,393.313 24.651 C 392.902 24.390,392.727 24.491,392.727 24.990 M392.180 26.668 C 392.173 26.714,392.098 26.991,392.015 27.283 C 391.870 27.786,391.881 27.805,392.223 27.649 C 392.445 27.548,392.593 27.317,392.609 27.050 C 392.625 26.780,392.585 26.695,392.504 26.827 C 392.401 26.994,392.355 26.991,392.283 26.811 C 392.234 26.686,392.187 26.621,392.180 26.668 M391.423 29.010 C 391.476 29.096,391.457 29.167,391.380 29.167 C 391.302 29.167,391.223 29.359,391.204 29.595 C 391.174 29.951,391.231 30.014,391.543 29.970 C 392.071 29.895,392.186 28.918,391.671 28.879 C 391.481 28.865,391.370 28.924,391.423 29.010 M390.694 31.313 C 390.571 31.391,390.495 31.596,390.523 31.769 C 390.552 31.942,390.505 32.196,390.419 32.333 C 390.333 32.471,390.499 32.396,390.789 32.167 C 391.543 31.569,391.461 30.827,390.694 31.313 M388.200 39.055 C 388.181 39.560,388.231 39.679,388.449 39.636 C 388.816 39.565,388.933 39.167,388.587 39.167 C 388.437 39.167,388.358 39.095,388.412 39.007 C 388.466 38.920,388.640 38.889,388.797 38.940 C 389.032 39.015,389.040 39.001,388.841 38.860 C 388.708 38.766,388.546 38.722,388.481 38.762 C 388.415 38.802,388.331 38.742,388.293 38.628 C 388.255 38.514,388.213 38.706,388.200 39.055 M387.593 41.422 C 387.415 41.557,387.363 41.667,387.478 41.667 C 387.593 41.667,387.636 41.749,387.573 41.849 C 387.503 41.963,387.579 42.010,387.772 41.973 C 387.943 41.940,388.107 41.745,388.137 41.540 C 388.198 41.109,388.049 41.077,387.593 41.422 M386.958 43.277 C 387.073 43.323,387.167 43.482,387.167 43.631 C 387.167 43.840,387.122 43.856,386.967 43.700 C 386.663 43.396,386.500 43.459,386.500 43.881 C 386.500 44.428,387.071 44.426,387.321 43.878 C 387.519 43.442,387.352 43.155,386.917 43.182 C 386.825 43.188,386.844 43.231,386.958 43.277 M385.319 48.125 C 385.312 48.194,385.287 48.419,385.264 48.625 C 385.234 48.893,385.310 49.000,385.528 49.000 C 385.890 49.000,385.936 48.696,385.594 48.564 C 385.462 48.514,385.395 48.366,385.445 48.236 C 385.495 48.106,385.490 48.000,385.434 48.000 C 385.379 48.000,385.327 48.056,385.319 48.125 M385.019 50.708 C 385.009 50.869,384.892 51.000,384.760 51.000 C 384.628 51.000,384.476 51.071,384.422 51.158 C 384.368 51.246,384.485 51.285,384.685 51.247 C 385.155 51.156,385.212 51.087,385.117 50.721 C 385.046 50.445,385.037 50.444,385.019 50.708 M383.956 52.766 C 383.901 52.821,383.897 52.971,383.946 53.100 C 383.995 53.228,383.953 53.333,383.851 53.333 C 383.750 53.333,383.667 53.446,383.667 53.585 C 383.667 53.782,383.729 53.797,383.958 53.654 C 384.119 53.554,384.250 53.291,384.250 53.069 C 384.250 52.673,384.151 52.571,383.956 52.766 M383.117 55.172 C 382.764 55.585,382.734 56.500,383.073 56.500 C 383.369 56.500,383.462 56.358,383.571 55.736 C 383.694 55.031,383.473 54.757,383.117 55.172 M382.610 57.593 C 382.677 57.767,382.592 57.884,382.355 57.946 C 382.012 58.036,381.843 58.500,382.153 58.500 C 382.237 58.500,382.443 58.552,382.611 58.615 C 382.890 58.719,382.895 58.702,382.667 58.416 C 382.521 58.234,382.504 58.155,382.625 58.228 C 382.774 58.317,382.833 58.207,382.833 57.843 C 382.833 57.563,382.761 57.333,382.672 57.333 C 382.583 57.333,382.555 57.450,382.610 57.593 M381.500 60.361 C 381.500 60.438,381.579 60.500,381.677 60.500 C 381.774 60.500,381.804 60.579,381.745 60.675 C 381.670 60.795,381.568 60.793,381.415 60.665 C 381.239 60.519,381.212 60.553,381.283 60.824 C 381.332 61.012,381.433 61.167,381.508 61.167 C 381.760 61.167,382.153 60.658,382.069 60.440 C 381.978 60.202,381.500 60.136,381.500 60.361 M380.999 62.502 C 380.827 62.740,380.731 62.772,380.635 62.621 C 380.541 62.474,380.504 62.471,380.503 62.611 C 380.497 63.039,380.720 63.333,381.051 63.333 C 381.315 63.333,381.353 63.286,381.208 63.141 C 381.072 63.005,381.066 62.855,381.188 62.627 C 381.422 62.189,381.288 62.100,380.999 62.502 M379.183 67.564 C 379.035 67.743,379.053 67.818,379.264 67.899 C 379.461 67.974,379.510 67.933,379.440 67.752 C 379.387 67.613,379.410 67.500,379.491 67.500 C 379.572 67.500,379.677 67.594,379.723 67.708 C 379.773 67.833,379.812 67.799,379.820 67.625 C 379.836 67.277,379.452 67.240,379.183 67.564 M378.583 69.833 C 378.527 69.925,378.541 70.001,378.615 70.003 C 378.689 70.004,378.643 70.073,378.512 70.156 C 378.262 70.314,378.111 70.833,378.315 70.833 C 378.540 70.833,378.833 70.432,378.833 70.123 C 378.833 69.953,378.908 69.860,379.000 69.917 C 379.092 69.973,379.167 69.940,379.167 69.843 C 379.167 69.619,378.720 69.612,378.583 69.833 M377.503 72.542 C 377.501 73.044,377.562 73.167,377.814 73.167 C 378.216 73.167,378.354 72.649,378.060 72.247 C 377.894 72.020,377.833 72.001,377.831 72.176 C 377.829 72.379,377.803 72.378,377.667 72.167 C 377.546 71.981,377.504 72.077,377.503 72.542 M377.234 74.474 C 377.303 74.586,377.252 74.667,377.113 74.667 C 376.980 74.667,376.837 74.852,376.793 75.079 C 376.728 75.418,376.774 75.482,377.054 75.439 C 377.439 75.380,377.633 74.602,377.312 74.403 C 377.188 74.327,377.160 74.354,377.234 74.474 M376.000 77.072 C 376.000 77.423,376.072 77.490,376.417 77.462 C 376.646 77.443,376.833 77.344,376.833 77.241 C 376.833 76.917,376.623 76.829,376.358 77.043 C 376.179 77.188,376.138 77.191,376.221 77.053 C 376.286 76.945,376.263 76.809,376.169 76.752 C 376.072 76.691,376.000 76.826,376.000 77.072 M375.853 79.458 C 375.842 79.573,375.702 79.669,375.542 79.672 C 375.271 79.676,375.272 79.690,375.554 79.854 C 375.921 80.067,376.057 79.965,375.951 79.555 C 375.907 79.387,375.863 79.344,375.853 79.458 " stroke="none" fill="#e08c8c" fill-rule="evenodd"></path><path id="path2" d="M398.836 5.625 C 398.833 6.086,398.908 6.092,399.333 5.667 C 399.517 5.483,399.596 5.333,399.510 5.333 C 399.424 5.333,399.302 5.416,399.239 5.518 C 399.160 5.646,399.082 5.634,398.982 5.476 C 398.877 5.311,398.838 5.351,398.836 5.625 M398.228 7.634 C 398.129 7.698,398.043 7.991,398.036 8.286 C 398.024 8.775,398.051 8.804,398.345 8.621 C 398.541 8.498,398.648 8.274,398.618 8.049 C 398.556 7.590,398.458 7.485,398.228 7.634 M397.374 10.240 C 397.442 10.320,397.419 10.480,397.324 10.595 C 397.204 10.740,397.204 10.837,397.325 10.912 C 397.421 10.971,397.500 10.943,397.500 10.848 C 397.500 10.754,397.613 10.720,397.750 10.773 C 397.914 10.836,398.000 10.768,398.000 10.573 C 398.000 10.411,397.951 10.327,397.890 10.387 C 397.830 10.448,397.661 10.406,397.515 10.296 C 397.369 10.185,397.306 10.160,397.374 10.240 M396.634 12.816 C 396.553 13.368,396.606 13.419,397.000 13.170 C 397.268 13.001,397.383 12.333,397.144 12.333 C 397.065 12.333,396.999 12.427,396.997 12.542 C 396.996 12.696,396.958 12.691,396.852 12.525 C 396.751 12.365,396.687 12.450,396.634 12.816 M395.901 14.731 C 395.759 15.101,395.937 15.500,396.245 15.500 C 396.571 15.500,396.576 14.937,396.252 14.668 C 396.051 14.502,395.984 14.514,395.901 14.731 M395.208 16.955 C 394.854 17.079,394.953 17.833,395.323 17.833 C 395.501 17.833,395.701 17.747,395.766 17.641 C 395.840 17.522,395.812 17.494,395.692 17.567 C 395.450 17.717,395.440 17.460,395.678 17.222 C 395.882 17.018,395.557 16.833,395.208 16.955 M394.511 19.903 C 394.353 20.093,394.372 20.131,394.607 20.097 C 394.767 20.073,394.928 19.967,394.963 19.860 C 395.054 19.589,394.748 19.618,394.511 19.903 M393.500 22.599 C 393.500 23.045,393.814 23.003,394.117 22.518 C 394.285 22.248,394.258 22.208,393.905 22.208 C 393.591 22.208,393.500 22.296,393.500 22.599 M392.727 24.990 C 392.727 25.406,392.771 25.456,393.021 25.322 C 393.454 25.090,393.574 24.816,393.313 24.651 C 392.902 24.390,392.727 24.491,392.727 24.990 M392.180 26.668 C 392.173 26.714,392.098 26.991,392.015 27.283 C 391.870 27.786,391.881 27.805,392.223 27.649 C 392.445 27.548,392.593 27.317,392.609 27.050 C 392.625 26.780,392.585 26.695,392.504 26.827 C 392.401 26.994,392.355 26.991,392.283 26.811 C 392.234 26.686,392.187 26.621,392.180 26.668 M391.423 29.010 C 391.476 29.096,391.457 29.167,391.380 29.167 C 391.302 29.167,391.223 29.359,391.204 29.595 C 391.174 29.951,391.231 30.014,391.543 29.970 C 392.071 29.895,392.186 28.918,391.671 28.879 C 391.481 28.865,391.370 28.924,391.423 29.010 M390.694 31.313 C 390.571 31.391,390.495 31.596,390.523 31.769 C 390.552 31.942,390.505 32.196,390.419 32.333 C 390.333 32.471,390.499 32.396,390.789 32.167 C 391.543 31.569,391.461 30.827,390.694 31.313 M388.200 39.055 C 388.181 39.560,388.231 39.679,388.449 39.636 C 388.816 39.565,388.933 39.167,388.587 39.167 C 388.437 39.167,388.358 39.095,388.412 39.007 C 388.466 38.920,388.640 38.889,388.797 38.940 C 389.032 39.015,389.040 39.001,388.841 38.860 C 388.708 38.766,388.546 38.722,388.481 38.762 C 388.415 38.802,388.331 38.742,388.293 38.628 C 388.255 38.514,388.213 38.706,388.200 39.055 M387.593 41.422 C 387.415 41.557,387.363 41.667,387.478 41.667 C 387.593 41.667,387.636 41.749,387.573 41.849 C 387.503 41.963,387.579 42.010,387.772 41.973 C 387.943 41.940,388.107 41.745,388.137 41.540 C 388.198 41.109,388.049 41.077,387.593 41.422 M386.958 43.277 C 387.073 43.323,387.167 43.482,387.167 43.631 C 387.167 43.840,387.122 43.856,386.967 43.700 C 386.663 43.396,386.500 43.459,386.500 43.881 C 386.500 44.428,387.071 44.426,387.321 43.878 C 387.519 43.442,387.352 43.155,386.917 43.182 C 386.825 43.188,386.844 43.231,386.958 43.277 M385.319 48.125 C 385.312 48.194,385.287 48.419,385.264 48.625 C 385.234 48.893,385.310 49.000,385.528 49.000 C 385.890 49.000,385.936 48.696,385.594 48.564 C 385.462 48.514,385.395 48.366,385.445 48.236 C 385.495 48.106,385.490 48.000,385.434 48.000 C 385.379 48.000,385.327 48.056,385.319 48.125 M385.019 50.708 C 385.009 50.869,384.892 51.000,384.760 51.000 C 384.628 51.000,384.476 51.071,384.422 51.158 C 384.368 51.246,384.485 51.285,384.685 51.247 C 385.155 51.156,385.212 51.087,385.117 50.721 C 385.046 50.445,385.037 50.444,385.019 50.708 M383.956 52.766 C 383.901 52.821,383.897 52.971,383.946 53.100 C 383.995 53.228,383.953 53.333,383.851 53.333 C 383.750 53.333,383.667 53.446,383.667 53.585 C 383.667 53.782,383.729 53.797,383.958 53.654 C 384.119 53.554,384.250 53.291,384.250 53.069 C 384.250 52.673,384.151 52.571,383.956 52.766 M383.117 55.172 C 382.764 55.585,382.734 56.500,383.073 56.500 C 383.369 56.500,383.462 56.358,383.571 55.736 C 383.694 55.031,383.473 54.757,383.117 55.172 M382.610 57.593 C 382.677 57.767,382.592 57.884,382.355 57.946 C 382.012 58.036,381.843 58.500,382.153 58.500 C 382.237 58.500,382.443 58.552,382.611 58.615 C 382.890 58.719,382.895 58.702,382.667 58.416 C 382.521 58.234,382.504 58.155,382.625 58.228 C 382.774 58.317,382.833 58.207,382.833 57.843 C 382.833 57.563,382.761 57.333,382.672 57.333 C 382.583 57.333,382.555 57.450,382.610 57.593 M381.500 60.361 C 381.500 60.438,381.579 60.500,381.677 60.500 C 381.774 60.500,381.804 60.579,381.745 60.675 C 381.670 60.795,381.568 60.793,381.415 60.665 C 381.239 60.519,381.212 60.553,381.283 60.824 C 381.332 61.012,381.433 61.167,381.508 61.167 C 381.760 61.167,382.153 60.658,382.069 60.440 C 381.978 60.202,381.500 60.136,381.500 60.361 M380.999 62.502 C 380.827 62.740,380.731 62.772,380.635 62.621 C 380.541 62.474,380.504 62.471,380.503 62.611 C 380.497 63.039,380.720 63.333,381.051 63.333 C 381.315 63.333,381.353 63.286,381.208 63.141 C 381.072 63.005,381.066 62.855,381.188 62.627 C 381.422 62.189,381.288 62.100,380.999 62.502 M379.183 67.564 C 379.035 67.743,379.053 67.818,379.264 67.899 C 379.461 67.974,379.510 67.933,379.440 67.752 C 379.387 67.613,379.410 67.500,379.491 67.500 C 379.572 67.500,379.677 67.594,379.723 67.708 C 379.773 67.833,379.812 67.799,379.820 67.625 C 379.836 67.277,379.452 67.240,379.183 67.564 M378.583 69.833 C 378.527 69.925,378.541 70.001,378.615 70.003 C 378.689 70.004,378.643 70.073,378.512 70.156 C 378.262 70.314,378.111 70.833,378.315 70.833 C 378.540 70.833,378.833 70.432,378.833 70.123 C 378.833 69.953,378.908 69.860,379.000 69.917 C 379.092 69.973,379.167 69.940,379.167 69.843 C 379.167 69.619,378.720 69.612,378.583 69.833 M377.503 72.542 C 377.501 73.044,377.562 73.167,377.814 73.167 C 378.216 73.167,378.354 72.649,378.060 72.247 C 377.894 72.020,377.833 72.001,377.831 72.176 C 377.829 72.379,377.803 72.378,377.667 72.167 C 377.546 71.981,377.504 72.077,377.503 72.542 M377.234 74.474 C 377.303 74.586,377.252 74.667,377.113 74.667 C 376.980 74.667,376.837 74.852,376.793 75.079 C 376.728 75.418,376.774 75.482,377.054 75.439 C 377.439 75.380,377.633 74.602,377.312 74.403 C 377.188 74.327,377.160 74.354,377.234 74.474 M376.000 77.072 C 376.000 77.423,376.072 77.490,376.417 77.462 C 376.646 77.443,376.833 77.344,376.833 77.241 C 376.833 76.917,376.623 76.829,376.358 77.043 C 376.179 77.188,376.138 77.191,376.221 77.053 C 376.286 76.945,376.263 76.809,376.169 76.752 C 376.072 76.691,376.000 76.826,376.000 77.072 M375.853 79.458 C 375.842 79.573,375.702 79.669,375.542 79.672 C 375.271 79.676,375.272 79.690,375.554 79.854 C 375.921 80.067,376.057 79.965,375.951 79.555 C 375.907 79.387,375.863 79.344,375.853 79.458 " stroke="none" fill="#e08c8c" fill-rule="evenodd"></path><path id="path3" d="M398.836 5.625 C 398.833 6.086,398.908 6.092,399.333 5.667 C 399.517 5.483,399.596 5.333,399.510 5.333 C 399.424 5.333,399.302 5.416,399.239 5.518 C 399.160 5.646,399.082 5.634,398.982 5.476 C 398.877 5.311,398.838 5.351,398.836 5.625 M398.228 7.634 C 398.129 7.698,398.043 7.991,398.036 8.286 C 398.024 8.775,398.051 8.804,398.345 8.621 C 398.541 8.498,398.648 8.274,398.618 8.049 C 398.556 7.590,398.458 7.485,398.228 7.634 M397.374 10.240 C 397.442 10.320,397.419 10.480,397.324 10.595 C 397.204 10.740,397.204 10.837,397.325 10.912 C 397.421 10.971,397.500 10.943,397.500 10.848 C 397.500 10.754,397.613 10.720,397.750 10.773 C 397.914 10.836,398.000 10.768,398.000 10.573 C 398.000 10.411,397.951 10.327,397.890 10.387 C 397.830 10.448,397.661 10.406,397.515 10.296 C 397.369 10.185,397.306 10.160,397.374 10.240 M396.634 12.816 C 396.553 13.368,396.606 13.419,397.000 13.170 C 397.268 13.001,397.383 12.333,397.144 12.333 C 397.065 12.333,396.999 12.427,396.997 12.542 C 396.996 12.696,396.958 12.691,396.852 12.525 C 396.751 12.365,396.687 12.450,396.634 12.816 M395.901 14.731 C 395.759 15.101,395.937 15.500,396.245 15.500 C 396.571 15.500,396.576 14.937,396.252 14.668 C 396.051 14.502,395.984 14.514,395.901 14.731 M395.208 16.955 C 394.854 17.079,394.953 17.833,395.323 17.833 C 395.501 17.833,395.701 17.747,395.766 17.641 C 395.840 17.522,395.812 17.494,395.692 17.567 C 395.450 17.717,395.440 17.460,395.678 17.222 C 395.882 17.018,395.557 16.833,395.208 16.955 M394.511 19.903 C 394.353 20.093,394.372 20.131,394.607 20.097 C 394.767 20.073,394.928 19.967,394.963 19.860 C 395.054 19.589,394.748 19.618,394.511 19.903 M393.500 22.599 C 393.500 23.045,393.814 23.003,394.117 22.518 C 394.285 22.248,394.258 22.208,393.905 22.208 C 393.591 22.208,393.500 22.296,393.500 22.599 M392.727 24.990 C 392.727 25.406,392.771 25.456,393.021 25.322 C 393.454 25.090,393.574 24.816,393.313 24.651 C 392.902 24.390,392.727 24.491,392.727 24.990 M392.180 26.668 C 392.173 26.714,392.098 26.991,392.015 27.283 C 391.870 27.786,391.881 27.805,392.223 27.649 C 392.445 27.548,392.593 27.317,392.609 27.050 C 392.625 26.780,392.585 26.695,392.504 26.827 C 392.401 26.994,392.355 26.991,392.283 26.811 C 392.234 26.686,392.187 26.621,392.180 26.668 M391.423 29.010 C 391.476 29.096,391.457 29.167,391.380 29.167 C 391.302 29.167,391.223 29.359,391.204 29.595 C 391.174 29.951,391.231 30.014,391.543 29.970 C 392.071 29.895,392.186 28.918,391.671 28.879 C 391.481 28.865,391.370 28.924,391.423 29.010 M390.694 31.313 C 390.571 31.391,390.495 31.596,390.523 31.769 C 390.552 31.942,390.505 32.196,390.419 32.333 C 390.333 32.471,390.499 32.396,390.789 32.167 C 391.543 31.569,391.461 30.827,390.694 31.313 M388.200 39.055 C 388.181 39.560,388.231 39.679,388.449 39.636 C 388.816 39.565,388.933 39.167,388.587 39.167 C 388.437 39.167,388.358 39.095,388.412 39.007 C 388.466 38.920,388.640 38.889,388.797 38.940 C 389.032 39.015,389.040 39.001,388.841 38.860 C 388.708 38.766,388.546 38.722,388.481 38.762 C 388.415 38.802,388.331 38.742,388.293 38.628 C 388.255 38.514,388.213 38.706,388.200 39.055 M387.593 41.422 C 387.415 41.557,387.363 41.667,387.478 41.667 C 387.593 41.667,387.636 41.749,387.573 41.849 C 387.503 41.963,387.579 42.010,387.772 41.973 C 387.943 41.940,388.107 41.745,388.137 41.540 C 388.198 41.109,388.049 41.077,387.593 41.422 M386.958 43.277 C 387.073 43.323,387.167 43.482,387.167 43.631 C 387.167 43.840,387.122 43.856,386.967 43.700 C 386.663 43.396,386.500 43.459,386.500 43.881 C 386.500 44.428,387.071 44.426,387.321 43.878 C 387.519 43.442,387.352 43.155,386.917 43.182 C 386.825 43.188,386.844 43.231,386.958 43.277 M385.319 48.125 C 385.312 48.194,385.287 48.419,385.264 48.625 C 385.234 48.893,385.310 49.000,385.528 49.000 C 385.890 49.000,385.936 48.696,385.594 48.564 C 385.462 48.514,385.395 48.366,385.445 48.236 C 385.495 48.106,385.490 48.000,385.434 48.000 C 385.379 48.000,385.327 48.056,385.319 48.125 M385.019 50.708 C 385.009 50.869,384.892 51.000,384.760 51.000 C 384.628 51.000,384.476 51.071,384.422 51.158 C 384.368 51.246,384.485 51.285,384.685 51.247 C 385.155 51.156,385.212 51.087,385.117 50.721 C 385.046 50.445,385.037 50.444,385.019 50.708 M383.956 52.766 C 383.901 52.821,383.897 52.971,383.946 53.100 C 383.995 53.228,383.953 53.333,383.851 53.333 C 383.750 53.333,383.667 53.446,383.667 53.585 C 383.667 53.782,383.729 53.797,383.958 53.654 C 384.119 53.554,384.250 53.291,384.250 53.069 C 384.250 52.673,384.151 52.571,383.956 52.766 M383.117 55.172 C 382.764 55.585,382.734 56.500,383.073 56.500 C 383.369 56.500,383.462 56.358,383.571 55.736 C 383.694 55.031,383.473 54.757,383.117 55.172 M382.610 57.593 C 382.677 57.767,382.592 57.884,382.355 57.946 C 382.012 58.036,381.843 58.500,382.153 58.500 C 382.237 58.500,382.443 58.552,382.611 58.615 C 382.890 58.719,382.895 58.702,382.667 58.416 C 382.521 58.234,382.504 58.155,382.625 58.228 C 382.774 58.317,382.833 58.207,382.833 57.843 C 382.833 57.563,382.761 57.333,382.672 57.333 C 382.583 57.333,382.555 57.450,382.610 57.593 M381.500 60.361 C 381.500 60.438,381.579 60.500,381.677 60.500 C 381.774 60.500,381.804 60.579,381.745 60.675 C 381.670 60.795,381.568 60.793,381.415 60.665 C 381.239 60.519,381.212 60.553,381.283 60.824 C 381.332 61.012,381.433 61.167,381.508 61.167 C 381.760 61.167,382.153 60.658,382.069 60.440 C 381.978 60.202,381.500 60.136,381.500 60.361 M380.999 62.502 C 380.827 62.740,380.731 62.772,380.635 62.621 C 380.541 62.474,380.504 62.471,380.503 62.611 C 380.497 63.039,380.720 63.333,381.051 63.333 C 381.315 63.333,381.353 63.286,381.208 63.141 C 381.072 63.005,381.066 62.855,381.188 62.627 C 381.422 62.189,381.288 62.100,380.999 62.502 M379.183 67.564 C 379.035 67.743,379.053 67.818,379.264 67.899 C 379.461 67.974,379.510 67.933,379.440 67.752 C 379.387 67.613,379.410 67.500,379.491 67.500 C 379.572 67.500,379.677 67.594,379.723 67.708 C 379.773 67.833,379.812 67.799,379.820 67.625 C 379.836 67.277,379.452 67.240,379.183 67.564 M378.583 69.833 C 378.527 69.925,378.541 70.001,378.615 70.003 C 378.689 70.004,378.643 70.073,378.512 70.156 C 378.262 70.314,378.111 70.833,378.315 70.833 C 378.540 70.833,378.833 70.432,378.833 70.123 C 378.833 69.953,378.908 69.860,379.000 69.917 C 379.092 69.973,379.167 69.940,379.167 69.843 C 379.167 69.619,378.720 69.612,378.583 69.833 M377.503 72.542 C 377.501 73.044,377.562 73.167,377.814 73.167 C 378.216 73.167,378.354 72.649,378.060 72.247 C 377.894 72.020,377.833 72.001,377.831 72.176 C 377.829 72.379,377.803 72.378,377.667 72.167 C 377.546 71.981,377.504 72.077,377.503 72.542 M377.234 74.474 C 377.303 74.586,377.252 74.667,377.113 74.667 C 376.980 74.667,376.837 74.852,376.793 75.079 C 376.728 75.418,376.774 75.482,377.054 75.439 C 377.439 75.380,377.633 74.602,377.312 74.403 C 377.188 74.327,377.160 74.354,377.234 74.474 M376.000 77.072 C 376.000 77.423,376.072 77.490,376.417 77.462 C 376.646 77.443,376.833 77.344,376.833 77.241 C 376.833 76.917,376.623 76.829,376.358 77.043 C 376.179 77.188,376.138 77.191,376.221 77.053 C 376.286 76.945,376.263 76.809,376.169 76.752 C 376.072 76.691,376.000 76.826,376.000 77.072 M375.853 79.458 C 375.842 79.573,375.702 79.669,375.542 79.672 C 375.271 79.676,375.272 79.690,375.554 79.854 C 375.921 80.067,376.057 79.965,375.951 79.555 C 375.907 79.387,375.863 79.344,375.853 79.458 " stroke="none" fill="#e08c8c" fill-rule="evenodd"></path></g></svg>