<?xml version="1.0" standalone="no"?>
<!DOCTYPE svg PUBLIC "-//W3C//DTD SVG 20010904//EN"
 "http://www.w3.org/TR/2001/REC-SVG-20010904/DTD/svg10.dtd">
<svg version="1.0" xmlns="http://www.w3.org/2000/svg"
 width="1894.000000pt" height="290.000000pt" viewBox="0 0 1894.000000 290.000000"
 preserveAspectRatio="xMidYMid meet">

<g transform="translate(0.000000,290.000000) scale(0.100000,-0.100000)"
fill="#000000" stroke="none">
<path d="M18880 2769 c-25 -5 -106 -14 -180 -19 -222 -16 -253 -23 -323 -68
-104 -68 -183 -98 -347 -132 -251 -51 -351 -78 -430 -116 -92 -45 -426 -155
-575 -190 -60 -14 -159 -40 -220 -56 -60 -16 -147 -36 -193 -43 -61 -10 -95
-22 -130 -45 -53 -35 -50 -34 -197 -55 -60 -9 -148 -27 -194 -40 -47 -14 -122
-30 -168 -35 -46 -6 -107 -15 -135 -20 -28 -6 -103 -10 -167 -10 -110 0 -274
-15 -423 -39 -50 -8 -88 -24 -153 -62 -47 -28 -114 -62 -148 -76 -34 -14 -83
-36 -108 -48 -25 -13 -74 -31 -109 -40 -35 -9 -89 -29 -121 -45 -32 -16 -89
-38 -128 -49 -40 -11 -121 -48 -188 -86 -79 -45 -136 -70 -173 -77 -30 -5 -62
-13 -70 -17 -9 -5 -30 -12 -48 -16 -20 -4 -43 -20 -60 -42 -15 -19 -49 -46
-77 -60 -27 -14 -68 -42 -91 -63 -41 -37 -71 -48 -186 -66 -24 -4 -74 -20
-113 -36 -38 -16 -97 -33 -130 -38 -33 -5 -105 -16 -160 -25 -55 -8 -131 -20
-168 -25 -38 -6 -94 -23 -127 -40 -146 -74 -122 -71 -489 -59 -299 10 -339 10
-447 -7 -166 -24 -242 -28 -357 -14 -55 6 -223 11 -375 10 -151 0 -323 4 -381
10 -58 7 -162 17 -231 25 -95 10 -143 10 -200 2 -98 -14 -1171 -11 -1255 4
-33 6 -103 25 -155 42 -74 24 -111 31 -170 30 -233 -3 -969 -5 -1110 -2 -178
2 -283 -9 -555 -62 -207 -40 -316 -36 -505 16 -49 14 -129 26 -190 30 -108 7
-162 14 -290 40 -121 24 -417 17 -800 -21 -185 -18 -248 -14 -353 22 -57 19
-93 24 -172 24 -54 0 -162 5 -238 11 -122 10 -148 9 -218 -6 -135 -29 -344 -4
-438 53 l-56 34 -240 -6 c-506 -13 -583 -19 -666 -48 -42 -15 -99 -29 -125
-33 -27 -4 -107 -18 -179 -31 -323 -59 -532 -59 -1040 2 -214 25 -237 27 -300
14 -170 -33 -273 -30 -490 11 -110 21 -149 23 -467 24 l-348 0 0 -552 0 -553
9470 0 9470 0 0 1390 c0 765 -3 1390 -7 1389 -5 -1 -28 -5 -53 -10z"/>
</g>
</svg>
