<?xml version="1.0" standalone="no"?>
<!DOCTYPE svg PUBLIC "-//W3C//DTD SVG 20010904//EN"
 "http://www.w3.org/TR/2001/REC-SVG-20010904/DTD/svg10.dtd">
<svg version="1.0" xmlns="http://www.w3.org/2000/svg"
 width="1894.000000pt" height="417.000000pt" viewBox="0 0 1894.000000 417.000000"
 preserveAspectRatio="xMidYMid meet">

<g transform="translate(0.000000,417.000000) scale(0.100000,-0.100000)"
fill="#000000" stroke="none">
<path d="M18850 3975 c-30 -7 -87 -14 -125 -14 -39 -1 -95 -7 -125 -15 -30 -7
-77 -17 -104 -21 -43 -6 -58 -15 -121 -75 -99 -93 -170 -137 -273 -166 -128
-37 -392 -124 -427 -142 -16 -8 -57 -34 -90 -58 -56 -41 -347 -183 -460 -225
-310 -114 -474 -171 -529 -183 -55 -11 -74 -21 -120 -64 -54 -48 -59 -51 -153
-67 -56 -9 -147 -35 -213 -60 -143 -54 -340 -95 -464 -95 -106 0 -258 -20
-405 -51 -100 -21 -107 -25 -178 -83 -138 -112 -299 -218 -382 -251 -32 -12
-87 -42 -122 -66 -35 -23 -95 -56 -134 -72 -48 -20 -107 -59 -185 -122 -105
-84 -177 -125 -224 -125 -8 0 -19 -7 -26 -15 -7 -8 -22 -15 -35 -15 -27 0 -49
-23 -70 -72 -9 -24 -34 -50 -69 -75 -30 -21 -68 -59 -85 -84 -34 -52 -83 -80
-171 -98 -30 -6 -90 -31 -132 -55 -69 -40 -100 -49 -302 -94 -203 -45 -230
-54 -273 -85 -27 -19 -73 -50 -103 -68 l-55 -33 -140 3 c-77 1 -227 6 -334 12
-203 10 -276 4 -421 -38 -62 -18 -180 -14 -337 12 -72 12 -112 13 -185 5 -198
-21 -346 -10 -719 50 -112 18 -121 18 -215 2 -86 -15 -169 -16 -629 -14 -599
4 -610 5 -764 76 -131 61 -171 69 -246 49 -63 -17 -170 -21 -370 -14 -66 3
-178 1 -250 -3 -96 -7 -158 -5 -235 5 -225 30 -377 14 -700 -74 -139 -38 -166
-42 -260 -41 -114 1 -148 8 -289 60 -76 29 -117 37 -215 45 -91 7 -144 18
-216 42 -93 31 -99 32 -255 30 -184 -2 -430 -24 -623 -55 -126 -20 -136 -20
-199 -4 -36 9 -91 28 -122 42 -49 23 -75 27 -211 35 -85 5 -196 13 -245 19
-84 10 -95 9 -165 -13 -66 -21 -85 -23 -158 -17 -46 5 -115 16 -155 26 -59 14
-80 25 -120 63 l-49 46 -194 3 c-150 3 -212 0 -274 -12 -56 -12 -120 -16 -208
-14 l-127 3 -105 -46 c-66 -29 -169 -62 -275 -89 -233 -58 -238 -59 -430 -66
-197 -8 -279 0 -625 56 -260 43 -280 43 -407 5 -76 -23 -207 -19 -314 10 -212
56 -295 69 -474 69 -93 0 -206 -3 -250 -8 -48 -5 -101 -4 -132 2 l-53 9 0
-798 0 -799 9470 0 9470 0 0 1995 c0 1894 -1 1995 -17 1994 -10 -1 -43 -7 -73
-14z"/>
</g>
</svg>
