<?xml version="1.0" encoding="UTF-8"?>
<svg version="1.1" xmlns="http://www.w3.org/2000/svg" width="2368" height="363">
<path d="M0 0 C0 114.84 0 229.68 0 348 C-781.44 348 -1562.88 348 -2368 348 C-2368 302.13 -2368 256.26 -2368 209 C-2354.243125 208.938125 -2340.48625 208.87625 -2326.3125 208.8125 C-2322.01387939 208.78518799 -2317.71525879 208.75787598 -2313.28637695 208.72973633 C-2307.92224121 208.71618652 -2307.92224121 208.71618652 -2305.38883972 208.71366882 C-2303.66807202 208.70914637 -2301.94731207 208.69877784 -2300.22660828 208.68327332 C-2286.88983291 208.5694065 -2274.15091071 209.80730474 -2261 212 C-2258.9962276 212.31725283 -2256.99236785 212.63395681 -2254.98828125 212.94921875 C-2253.80770142 213.13846924 -2253.80770142 213.13846924 -2252.60327148 213.33154297 C-2237.84596663 215.62464224 -2224.05191835 215.77376836 -2209.33764648 213.06787109 C-2198.33712178 211.12110037 -2187.38498114 211.96768596 -2176.3515625 213.2421875 C-2173.95427378 213.50578264 -2171.55697525 213.76928852 -2169.15966797 214.03271484 C-2167.31136383 214.23970001 -2167.31136383 214.23970001 -2165.42572021 214.4508667 C-2139.68825637 217.329738 -2139.68825637 217.329738 -2113.875 219.375 C-2112.17851318 219.48303955 -2112.17851318 219.48303955 -2110.44775391 219.59326172 C-2085.00397915 221.02338402 -2060.49054683 218.3041743 -2035.4375 214.1875 C-2034.40674347 214.0210498 -2033.37598694 213.85459961 -2032.31399536 213.68310547 C-2022.37214271 212.06528726 -2012.59674336 210.37790337 -2002.97265625 207.36328125 C-1987.75633756 202.61930714 -1972.12611981 202.47669626 -1956.3125 201.9375 C-1955.20804535 201.89941223 -1954.1035907 201.86132446 -1952.96566772 201.82208252 C-1948.38588645 201.66506803 -1943.80609675 201.50890878 -1939.22602844 201.36047363 C-1932.64153624 201.14302309 -1926.06386251 200.86774694 -1919.48469543 200.52546692 C-1915.52886124 200.32506144 -1911.57202107 200.15904823 -1907.61434937 199.99954224 C-1905.7755857 199.91780917 -1903.93740004 199.82150444 -1902.10025024 199.709198 C-1890.53583669 199.01317241 -1882.52604122 200.09099448 -1872.47485352 206.06518555 C-1860.11979235 212.94454055 -1842.55417802 213.35790232 -1828.875 211 C-1817.95592374 209.36330763 -1807.01049373 209.71654174 -1796 210 C-1795.20789124 210.0195575 -1794.41578247 210.03911499 -1793.59967041 210.05926514 C-1788.17542003 210.19782337 -1782.7536286 210.37406072 -1777.33166504 210.5838623 C-1775.51525854 210.65184243 -1773.69858901 210.71318799 -1771.88171387 210.76721191 C-1760.67150464 211.1139087 -1750.61035515 212.46911879 -1739.89819336 215.85473633 C-1723.8058062 220.83136541 -1705.26002972 217.51984427 -1688.8125 216.0625 C-1655.21089376 213.11689625 -1621.55417825 210.40187426 -1588.21386719 216.83007812 C-1581.06206282 218.13390954 -1573.86142205 218.67955942 -1566.625 219.3125 C-1553.03593989 220.52995504 -1540.01818029 223.06123655 -1526.79711914 226.38330078 C-1508.89609468 230.33005716 -1491.1728968 227.45765286 -1473.4375 224.125 C-1470.41591741 223.56896436 -1467.39351229 223.01829502 -1464.36964417 222.474823 C-1462.51346367 222.14006476 -1460.65854639 221.79815372 -1458.80552673 221.44631958 C-1443.80160275 218.70244591 -1428.74205802 217.69841849 -1413.51416016 217.64599609 C-1411.8638455 217.63341164 -1410.21353616 217.62011359 -1408.56323242 217.60617065 C-1403.22188013 217.56474565 -1397.8805308 217.54343092 -1392.5390625 217.5234375 C-1390.67645595 217.51531826 -1388.8138499 217.50708382 -1386.95124435 217.49873734 C-1378.19204114 217.46078077 -1369.43287007 217.43228687 -1360.67360079 217.4155134 C-1350.66479109 217.39601317 -1340.65687113 217.34343044 -1330.6483742 217.26251161 C-1322.84207592 217.20162765 -1315.03602881 217.17252354 -1307.22949827 217.16595137 C-1302.59896927 217.16131469 -1297.9693981 217.14426119 -1293.3391304 217.09302902 C-1273.23925689 216.88176741 -1255.58086601 217.74034482 -1236.40975952 224.18228149 C-1224.20485801 228.04201944 -1211.00086717 227.1380515 -1198.31958008 227.06591797 C-1196.7076482 227.06070811 -1195.09571462 227.05600341 -1193.48377991 227.05175781 C-1190.04149115 227.04190409 -1186.59923131 227.02908776 -1183.15696144 227.01403427 C-1177.68307715 226.99067719 -1172.20919616 226.97757903 -1166.73527527 226.96633911 C-1151.178693 226.93315434 -1135.62216562 226.89170784 -1120.06567383 226.82861328 C-1111.45110976 226.79376017 -1102.83658657 226.77016725 -1094.22195929 226.75840485 C-1089.68618475 226.75172553 -1085.1505845 226.73964787 -1080.6148777 226.71337509 C-1060.76302587 226.60131962 -1041.44946439 227.09392808 -1021.73622704 229.6695137 C-1002.82353475 231.95382183 -983.47398118 231.30456887 -964.44891357 231.52606201 C-960.04337467 231.57760073 -955.63790296 231.63254447 -951.23246193 231.69187927 C-949.20886224 231.71782501 -947.18520246 231.73894556 -945.1615448 231.7598877 C-937.76371378 231.85812028 -930.42694117 232.18228382 -923.05143738 232.77130127 C-912.32026064 233.5755801 -901.44472584 233.69591049 -890.81991577 231.90457153 C-877.88900785 229.80211285 -865.08531086 229.7838603 -852.0234375 229.8828125 C-851.03369556 229.88959518 -850.04395363 229.89637787 -849.02421951 229.90336609 C-839.69719945 229.97213497 -830.37079123 230.08293453 -821.04443359 230.21240234 C-815.89450157 230.28235771 -810.74481083 230.32718059 -805.5945015 230.35757065 C-803.65778445 230.37416442 -801.7211215 230.40034427 -799.78467941 230.4369545 C-785.49984806 230.70641765 -775.44707035 228.57665555 -762.4375 222.375 C-750.01034237 216.60740391 -735.60530382 215.63039576 -722.15551758 213.77587891 C-710.63858944 212.17633654 -700.00296431 209.79439374 -689 206 C-682.26242256 203.81935413 -675.64099268 201.8744417 -668.6875 200.5 C-660.4706164 198.79649974 -655.07317794 196.1771073 -648.9140625 190.56640625 C-646.72983832 188.7789085 -644.45472921 187.45301881 -642 186.0625 C-637.90770043 183.70632752 -634.86618806 181.16261001 -631.765625 177.61328125 C-627.61337311 173.81929888 -622.69828906 172.58711941 -617.37963867 171.31518555 C-606.06684151 168.54911788 -596.45537407 163.85481382 -586.25024414 158.32495117 C-576.00055644 152.83183983 -565.51927575 148.76273406 -554.56494141 144.91992188 C-550.9784772 143.6336286 -547.45844578 142.204212 -543.9375 140.75 C-539.43772696 138.91547715 -534.96002827 137.3508144 -530.3125 135.9375 C-522.55485567 133.41462202 -515.20504556 130.04854174 -507.8125 126.625 C-506.6366333 126.08351318 -505.4607666 125.54202637 -504.24926758 124.98413086 C-497.50107235 121.81811799 -491.03333307 118.39274666 -484.66430664 114.51806641 C-465.09603576 103.36847341 -435.89855705 104.26308439 -413.97412109 103.76342773 C-392.07031194 103.21574445 -370.57127428 99.38266918 -349.3269043 94.15698242 C-344.10566158 92.88576226 -338.93765769 91.78189381 -333.6171875 91.01171875 C-332.56853516 90.85904541 -331.51988281 90.70637207 -330.43945312 90.54907227 C-328.50136741 90.28087159 -326.55995448 90.0349441 -324.61523438 89.82006836 C-318.45920426 88.97090353 -313.71931161 86.99150517 -308.30078125 84.1015625 C-300.9987667 80.23020715 -294.07265025 78.20044984 -285.98510742 76.66598511 C-282.0676368 75.91591429 -278.16982836 75.0723393 -274.26953125 74.23828125 C-273.02805832 73.97465538 -273.02805832 73.97465538 -271.76150513 73.70570374 C-245.83447932 68.13988731 -220.33048987 60.76317857 -195.25 52.1875 C-194.34668945 51.87916229 -193.44337891 51.57082458 -192.51269531 51.25314331 C-182.7776638 47.91119184 -173.20334932 44.32290042 -163.71351624 40.33828735 C-158.60533034 38.20779997 -153.54493086 36.43478582 -148.1875 35.0625 C-146.87869873 34.71372803 -146.87869873 34.71372803 -145.54345703 34.35791016 C-134.69044672 31.54091691 -123.70665803 29.21463505 -112.73901367 26.89086914 C-101.63736216 24.5166617 -90.90904361 21.7744264 -80.75 16.5625 C-80.15993164 16.2624707 -79.56986328 15.96244141 -78.96191406 15.65332031 C-75.77302485 14.00885735 -72.73287658 12.24058901 -69.75 10.25 C-62.20892257 5.37116658 -53.30692736 4.43679934 -44.55078125 3.61328125 C-43.49392624 3.50654587 -42.43707123 3.39981049 -41.34819031 3.2898407 C-39.1309406 3.06776032 -36.91321768 2.85035859 -34.69506836 2.63745117 C-31.31057322 2.3123149 -27.92775212 1.97284417 -24.54492188 1.63085938 C-22.38029104 1.41583247 -20.21557992 1.20161189 -18.05078125 0.98828125 C-17.04646561 0.88832352 -16.04214996 0.78836578 -15.00740051 0.68537903 C-13.58508369 0.549748 -13.58508369 0.549748 -12.1340332 0.41137695 C-11.3092598 0.3316011 -10.48448639 0.25182526 -9.63471985 0.16963196 C-6.42928557 -0.03674448 -3.21207101 0 0 0 Z " fill="#101010" transform="translate(2368,15)"/>
</svg>
