<?xml version="1.0" standalone="no"?>
<!DOCTYPE svg PUBLIC "-//W3C//DTD SVG 20010904//EN"
 "http://www.w3.org/TR/2001/REC-SVG-20010904/DTD/svg10.dtd">
<svg version="1.0" xmlns="http://www.w3.org/2000/svg"
 width="800.000000pt" height="800.000000pt" viewBox="0 0 800.000000 800.000000"
 preserveAspectRatio="xMidYMid meet">

<g transform="translate(0.000000,800.000000) scale(0.100000,-0.100000)"
fill="#ffffff" stroke="none">
<path d="M1630 7174 c-30 -8 -93 -33 -140 -56 -77 -38 -102 -58 -258 -212
-198 -195 -269 -291 -377 -511 -104 -213 -153 -389 -174 -632 -53 -598 99
-1169 481 -1803 227 -377 515 -743 949 -1207 562 -600 1108 -1052 1664 -1378
688 -404 1387 -622 1924 -602 215 8 413 63 641 177 176 89 291 174 476 357
167 164 172 170 223 273 94 193 94 319 1 509 l-52 106 -542 541 -541 542 -105
51 c-189 91 -316 90 -510 -5 -93 -46 -101 -53 -345 -295 -138 -137 -254 -249
-259 -249 -16 0 -365 205 -488 286 -608 405 -1021 856 -1417 1549 l-91 159
253 256 c230 231 257 263 294 335 62 121 76 181 71 294 -6 109 -33 188 -100
294 -27 43 -205 227 -571 593 l-532 531 -95 46 c-52 25 -115 51 -140 56 -64
15 -175 12 -240 -5z m657 -1006 l483 -483 0 -55 0 -54 -339 -341 c-186 -187
-346 -354 -354 -371 -16 -31 -16 -32 62 -165 43 -74 128 -224 191 -334 254
-450 472 -745 795 -1074 399 -407 674 -609 1311 -967 349 -196 311 -178 346
-163 18 7 177 159 367 350 315 316 339 338 378 343 23 3 52 2 65 -3 13 -5 238
-225 502 -489 l479 -480 -5 -53 c-5 -52 -7 -54 -119 -164 -203 -199 -378 -294
-627 -341 -177 -34 -507 1 -810 85 -655 182 -1267 534 -1927 1110 -170 149
-645 627 -811 816 -790 904 -1082 1523 -1061 2245 7 217 24 339 68 476 57 180
124 289 279 456 110 118 139 138 200 138 l45 0 482 -482z"/>
</g>
</svg>
